ply
format ascii 1.0
comment Created by Blender 3.4.1 - www.blender.org
element vertex 423
property float x
property float y
property float z
property float nx
property float ny
property float nz
property float s
property float t
property uchar red
property uchar green
property uchar blue
property uchar alpha
element face 464
property list uchar uint vertex_indices
end_header
0.037025 0.000000 6.422818 0.975609 0.000000 0.219515 0.000000 0.000000 255 255 255 255
0.026180 0.026180 6.422818 0.689860 0.689860 0.219515 0.000000 0.000000 255 255 255 255
0.026746 0.026746 6.443694 0.669859 0.669859 0.320276 0.000000 0.000000 255 255 255 255
0.037825 0.000000 6.443694 0.944476 -0.000000 0.328580 0.000000 0.000000 255 255 255 255
0.000000 -0.037025 6.422818 0.000000 -0.975609 0.219515 0.000000 0.000000 255 255 255 255
0.026180 -0.026180 6.422818 0.689860 -0.689860 0.219515 0.000000 0.000000 255 255 255 255
0.026746 -0.026746 6.443694 0.669860 -0.669859 0.320276 0.000000 0.000000 255 255 255 255
0.000000 -0.037825 6.443694 0.000000 -0.944476 0.328579 0.000000 0.000000 255 255 255 255
0.000000 0.037025 6.422818 -0.000000 0.975609 0.219515 0.000000 0.000000 255 255 255 255
0.000000 0.037825 6.443694 -0.000000 0.944476 0.328580 0.000000 0.000000 255 255 255 255
0.000000 0.095101 0.075413 -0.000000 0.976148 0.217105 0.000000 0.000000 255 255 255 255
0.067247 0.067247 0.075413 0.690242 0.690241 0.217105 0.000000 0.000000 255 255 255 255
0.066866 0.066866 0.037500 0.424084 0.424084 0.800191 0.000000 0.000000 255 255 255 255
0.000000 0.094562 0.037500 0.000000 0.599746 0.800191 0.000000 0.000000 255 255 255 255
-0.026180 -0.026180 6.422818 -0.689860 -0.689860 0.219515 0.000000 0.000000 255 255 255 255
-0.026746 -0.026746 6.443694 -0.669859 -0.669859 0.320276 0.000000 0.000000 255 255 255 255
0.095101 0.000000 0.075413 0.976148 0.000000 0.217105 0.000000 0.000000 255 255 255 255
0.067247 -0.067247 0.075413 0.690241 -0.690241 0.217104 0.000000 0.000000 255 255 255 255
0.066866 -0.066866 0.037500 0.424084 -0.424084 0.800191 0.000000 0.000000 255 255 255 255
0.094562 0.000000 0.037500 0.599746 -0.000000 0.800191 0.000000 0.000000 255 255 255 255
0.000000 -0.095101 0.075413 -0.000000 -0.976149 0.217103 0.000000 0.000000 255 255 255 255
-0.067247 -0.067247 0.075413 -0.690241 -0.690241 0.217102 0.000000 0.000000 255 255 255 255
-0.066865 -0.066866 0.037500 -0.424084 -0.424084 0.800191 0.000000 0.000000 255 255 255 255
0.000000 -0.094562 0.037500 0.000000 -0.599746 0.800191 0.000000 0.000000 255 255 255 255
-0.066856 0.066856 0.076482 -0.683735 0.683735 0.254977 0.000000 0.000000 255 255 255 255
-0.027169 0.027169 6.283126 -0.703969 0.703968 -0.094111 0.000000 0.000000 255 255 255 255
0.000000 0.038423 6.283126 -0.000000 0.995562 -0.094111 0.000000 0.000000 255 255 255 255
0.000000 0.094549 0.076482 -0.000000 0.966947 0.254979 0.000000 0.000000 255 255 255 255
-0.037025 0.000000 6.422818 -0.975609 -0.000000 0.219515 0.000000 0.000000 255 255 255 255
-0.037825 0.000000 6.443694 -0.944476 -0.000000 0.328580 0.000000 0.000000 255 255 255 255
-0.095101 0.000000 0.075413 -0.976149 -0.000000 0.217102 0.000000 0.000000 255 255 255 255
-0.094562 0.000000 0.037500 -0.599746 -0.000000 0.800191 0.000000 0.000000 255 255 255 255
0.027681 -0.027681 6.286833 0.704285 -0.704285 -0.089249 0.000000 0.000000 255 255 255 255
0.039147 0.000000 6.286833 0.996009 0.000000 -0.089249 0.000000 0.000000 255 255 255 255
0.037833 0.000000 6.421162 0.975795 0.000000 0.218689 0.000000 0.000000 255 255 255 255
0.026752 -0.026752 6.421162 0.689991 -0.689991 0.218689 0.000000 0.000000 255 255 255 255
-0.027681 -0.027681 6.286833 -0.704285 -0.704285 -0.089249 0.000000 0.000000 255 255 255 255
0.000000 -0.039147 6.286833 0.000000 -0.996009 -0.089249 0.000000 0.000000 255 255 255 255
0.000000 -0.037833 6.421162 0.000000 -0.975795 0.218689 0.000000 0.000000 255 255 255 255
-0.026752 -0.026752 6.421162 -0.689991 -0.689991 0.218689 0.000000 0.000000 255 255 255 255
0.000000 0.031212 6.451575 -0.000000 0.531009 0.847366 0.000000 0.000000 255 255 255 255
0.000000 0.000000 6.458997 0.000000 0.000000 1.000000 0.000000 0.000000 255 255 255 255
0.031212 0.000000 6.451575 0.531009 -0.000000 0.847366 0.000000 0.000000 255 255 255 255
0.021918 0.021918 6.450002 0.404725 0.404725 0.819997 0.000000 0.000000 255 255 255 255
0.027681 0.027681 6.286833 0.704285 0.704285 -0.089249 0.000000 0.000000 255 255 255 255
0.000000 0.039147 6.286833 -0.000000 0.996009 -0.089249 0.000000 0.000000 255 255 255 255
0.000000 0.037833 6.421162 -0.000000 0.975795 0.218689 0.000000 0.000000 255 255 255 255
0.026752 0.026752 6.421162 0.689991 0.689991 0.218689 0.000000 0.000000 255 255 255 255
0.000000 -0.031212 6.451575 0.000000 -0.531009 0.847366 0.000000 0.000000 255 255 255 255
0.021918 -0.021918 6.450002 0.404725 -0.404725 0.819997 0.000000 0.000000 255 255 255 255
-0.031212 0.000000 6.451575 -0.531009 -0.000000 0.847366 0.000000 0.000000 255 255 255 255
-0.021918 -0.021918 6.450002 -0.404725 -0.404725 0.819997 0.000000 0.000000 255 255 255 255
-0.039147 0.000000 6.286833 -0.996009 -0.000000 -0.089249 0.000000 0.000000 255 255 255 255
-0.037833 0.000000 6.421162 -0.975795 -0.000000 0.218689 0.000000 0.000000 255 255 255 255
-0.027681 0.027681 6.286833 -0.704285 0.704285 -0.089249 0.000000 0.000000 255 255 255 255
-0.026752 0.026752 6.421162 -0.689991 0.689991 0.218689 0.000000 0.000000 255 255 255 255
-0.026180 0.026180 6.422818 -0.689860 0.689860 0.219515 0.000000 0.000000 255 255 255 255
-0.026746 0.026746 6.443694 -0.669859 0.669859 0.320276 0.000000 0.000000 255 255 255 255
-0.021918 0.021918 6.450002 -0.404725 0.404725 0.819997 0.000000 0.000000 255 255 255 255
0.090603 0.000000 0.000000 0.437704 0.000000 -0.899119 0.000000 0.000000 255 255 255 255
0.064066 -0.064066 0.000000 0.309504 -0.309504 -0.899119 0.000000 0.000000 255 255 255 255
0.020060 -0.020060 0.000000 0.420288 -0.420288 -0.804186 0.000000 0.000000 255 255 255 255
0.028369 0.000000 0.000000 0.594377 0.000000 -0.804186 0.000000 0.000000 255 255 255 255
0.000000 -0.090602 0.000000 0.000000 -0.437704 -0.899119 0.000000 0.000000 255 255 255 255
-0.064066 -0.064066 0.000000 -0.309503 -0.309503 -0.899119 0.000000 0.000000 255 255 255 255
-0.020060 -0.020060 0.000000 -0.420288 -0.420288 -0.804186 0.000000 0.000000 255 255 255 255
0.000000 -0.028369 0.000000 0.000000 -0.594377 -0.804187 0.000000 0.000000 255 255 255 255
0.000000 0.090603 0.000000 0.000000 0.437704 -0.899119 0.000000 0.000000 255 255 255 255
0.064066 0.064066 0.000000 0.309503 0.309503 -0.899119 0.000000 0.000000 255 255 255 255
0.020060 0.020060 0.000000 0.420288 0.420288 -0.804186 0.000000 0.000000 255 255 255 255
0.000000 0.028369 0.000000 0.000000 0.594377 -0.804187 0.000000 0.000000 255 255 255 255
-0.090602 0.000000 0.000000 -0.437704 -0.000000 -0.899119 0.000000 0.000000 255 255 255 255
-0.064066 0.064066 0.000000 -0.309503 0.309503 -0.899119 0.000000 0.000000 255 255 255 255
-0.020060 0.020060 0.000000 -0.420288 0.420288 -0.804186 0.000000 0.000000 255 255 255 255
-0.028369 0.000000 0.000000 -0.594377 -0.000000 -0.804186 0.000000 0.000000 255 255 255 255
0.094562 0.000000 0.018750 0.594377 -0.000000 -0.804186 0.000000 0.000000 255 255 255 255
0.066866 -0.066866 0.018750 0.420288 -0.420288 -0.804186 0.000000 0.000000 255 255 255 255
0.066866 -0.066866 0.003658 0.657248 -0.657248 -0.368851 0.000000 0.000000 255 255 255 255
0.094562 0.000000 0.003658 0.929488 -0.000000 -0.368851 0.000000 0.000000 255 255 255 255
0.000000 -0.094562 0.018750 0.000000 -0.594377 -0.804186 0.000000 0.000000 255 255 255 255
-0.066865 -0.066866 0.018750 -0.420288 -0.420288 -0.804186 0.000000 0.000000 255 255 255 255
-0.066865 -0.066866 0.003658 -0.657247 -0.657247 -0.368851 0.000000 0.000000 255 255 255 255
0.000000 -0.094562 0.003658 0.000000 -0.929488 -0.368851 0.000000 0.000000 255 255 255 255
-0.094562 0.000000 0.018750 -0.594377 -0.000000 -0.804186 0.000000 0.000000 255 255 255 255
-0.066865 0.066866 0.018750 -0.420288 0.420288 -0.804186 0.000000 0.000000 255 255 255 255
-0.066865 0.066866 0.003658 -0.657248 0.657247 -0.368852 0.000000 0.000000 255 255 255 255
-0.094562 0.000000 0.003658 -0.929488 -0.000000 -0.368852 0.000000 0.000000 255 255 255 255
0.066866 0.066866 0.018750 0.420288 0.420288 -0.804186 0.000000 0.000000 255 255 255 255
0.066866 0.066866 0.003658 0.657248 0.657247 -0.368852 0.000000 0.000000 255 255 255 255
0.000000 0.094562 0.018750 0.000000 0.594377 -0.804187 0.000000 0.000000 255 255 255 255
0.000000 0.094562 0.003658 0.000000 0.929488 -0.368852 0.000000 0.000000 255 255 255 255
0.000000 0.023424 -0.125000 0.000000 0.437704 -0.899119 0.000000 0.000000 255 255 255 255
0.016564 0.016564 -0.125000 0.309503 0.309503 -0.899119 0.000000 0.000000 255 255 255 255
0.023424 0.000000 -0.125000 0.437704 -0.000000 -0.899119 0.000000 0.000000 255 255 255 255
0.000000 0.000000 -0.125000 0.000000 0.000000 -1.000000 0.000000 0.000000 255 255 255 255
-0.020060 0.020060 -0.120432 -0.657248 0.657247 -0.368852 0.000000 0.000000 255 255 255 255
-0.028369 0.000000 -0.120432 -0.929488 -0.000000 -0.368852 0.000000 0.000000 255 255 255 255
0.028369 0.000000 -0.120432 0.929488 -0.000000 -0.368852 0.000000 0.000000 255 255 255 255
0.020060 0.020060 -0.120432 0.657248 0.657247 -0.368852 0.000000 0.000000 255 255 255 255
0.016564 -0.016564 -0.125000 0.309503 -0.309503 -0.899119 0.000000 0.000000 255 255 255 255
0.000000 -0.023424 -0.125000 0.000000 -0.437704 -0.899119 0.000000 0.000000 255 255 255 255
-0.023424 0.000000 -0.125000 -0.437704 -0.000000 -0.899119 0.000000 0.000000 255 255 255 255
-0.016563 -0.016564 -0.125000 -0.309503 -0.309503 -0.899119 0.000000 0.000000 255 255 255 255
0.020060 -0.020060 -0.120432 0.657247 -0.657247 -0.368852 0.000000 0.000000 255 255 255 255
-0.020060 -0.020060 -0.120432 -0.657247 -0.657247 -0.368852 0.000000 0.000000 255 255 255 255
0.000000 -0.028369 -0.120432 0.000000 -0.929488 -0.368852 0.000000 0.000000 255 255 255 255
0.000000 0.028369 -0.120432 -0.000000 0.929488 -0.368852 0.000000 0.000000 255 255 255 255
0.066856 0.066856 0.076482 0.683734 0.683735 0.254979 0.000000 0.000000 255 255 255 255
0.027169 0.027169 6.283126 0.703969 0.703968 -0.094111 0.000000 0.000000 255 255 255 255
0.038423 0.000000 6.283126 0.995562 -0.000000 -0.094111 0.000000 0.000000 255 255 255 255
0.094549 0.000000 0.076482 0.966947 0.000000 0.254979 0.000000 0.000000 255 255 255 255
-0.094549 0.000000 0.076482 -0.966947 -0.000000 0.254976 0.000000 0.000000 255 255 255 255
-0.038423 0.000000 6.283126 -0.995562 -0.000000 -0.094111 0.000000 0.000000 255 255 255 255
0.000000 -0.094549 0.076482 -0.000000 -0.966947 0.254976 0.000000 0.000000 255 255 255 255
0.000000 -0.038423 6.283126 0.000000 -0.995562 -0.094111 0.000000 0.000000 255 255 255 255
-0.027169 -0.027169 6.283126 -0.703968 -0.703968 -0.094111 0.000000 0.000000 255 255 255 255
-0.066856 -0.066856 0.076482 -0.683735 -0.683735 0.254976 0.000000 0.000000 255 255 255 255
0.027169 -0.027169 6.283126 0.703969 -0.703968 -0.094111 0.000000 0.000000 255 255 255 255
0.066856 -0.066856 0.076482 0.683734 -0.683735 0.254978 0.000000 0.000000 255 255 255 255
-0.067247 0.067247 0.075413 -0.690241 0.690241 0.217104 0.000000 0.000000 255 255 255 255
-0.066865 0.066866 0.037500 -0.424084 0.424084 0.800191 0.000000 0.000000 255 255 255 255
-0.068659 0.068659 0.036523 -0.657248 0.657247 0.368851 0.000000 0.000000 255 255 255 255
0.000000 0.097099 0.036523 0.000000 0.929488 0.368851 0.000000 0.000000 255 255 255 255
0.000000 0.097099 0.019727 -0.000000 0.929489 -0.368851 0.000000 0.000000 255 255 255 255
-0.068659 0.068659 0.019727 -0.657248 0.657248 -0.368851 0.000000 0.000000 255 255 255 255
-0.067912 0.067912 0.037500 -0.309504 0.309504 0.899119 0.000000 0.000000 255 255 255 255
-0.096042 0.000000 0.037500 -0.437705 -0.000000 0.899119 0.000000 0.000000 255 255 255 255
0.068659 0.068659 0.036523 0.657248 0.657247 0.368851 0.000000 0.000000 255 255 255 255
0.097099 0.000000 0.036523 0.929488 0.000000 0.368851 0.000000 0.000000 255 255 255 255
0.097099 0.000000 0.019727 0.929489 0.000000 -0.368851 0.000000 0.000000 255 255 255 255
0.068659 0.068659 0.019727 0.657248 0.657248 -0.368851 0.000000 0.000000 255 255 255 255
0.096042 0.000000 0.037500 0.437704 0.000000 0.899119 0.000000 0.000000 255 255 255 255
0.067912 0.067912 0.037500 0.309504 0.309504 0.899119 0.000000 0.000000 255 255 255 255
0.000000 -0.096042 0.037500 0.000000 -0.437705 0.899119 0.000000 0.000000 255 255 255 255
0.067912 -0.067912 0.037500 0.309504 -0.309504 0.899119 0.000000 0.000000 255 255 255 255
-0.067912 -0.067912 0.037500 -0.309504 -0.309504 0.899119 0.000000 0.000000 255 255 255 255
0.000000 -0.096042 0.018750 0.000000 -0.437705 -0.899118 0.000000 0.000000 255 255 255 255
-0.067912 -0.067912 0.018750 -0.309505 -0.309505 -0.899118 0.000000 0.000000 255 255 255 255
0.067912 0.067912 0.018750 0.309504 0.309504 -0.899119 0.000000 0.000000 255 255 255 255
0.096042 0.000000 0.018750 0.437705 0.000000 -0.899119 0.000000 0.000000 255 255 255 255
-0.067912 0.067912 0.018750 -0.309505 0.309504 -0.899119 0.000000 0.000000 255 255 255 255
0.000000 0.096042 0.018750 0.000000 0.437705 -0.899119 0.000000 0.000000 255 255 255 255
-0.096042 0.000000 0.018750 -0.437706 -0.000000 -0.899118 0.000000 0.000000 255 255 255 255
0.067912 -0.067912 0.018750 0.309504 -0.309504 -0.899119 0.000000 0.000000 255 255 255 255
-0.097099 0.000000 0.036523 -0.929489 -0.000000 0.368851 0.000000 0.000000 255 255 255 255
-0.097099 0.000000 0.019727 -0.929489 -0.000000 -0.368850 0.000000 0.000000 255 255 255 255
0.000000 -0.097099 0.036523 0.000000 -0.929489 0.368851 0.000000 0.000000 255 255 255 255
-0.068659 -0.068659 0.036523 -0.657248 -0.657248 0.368851 0.000000 0.000000 255 255 255 255
-0.068659 -0.068659 0.019727 -0.657248 -0.657248 -0.368850 0.000000 0.000000 255 255 255 255
0.000000 -0.097099 0.019727 0.000000 -0.929489 -0.368850 0.000000 0.000000 255 255 255 255
0.068659 -0.068659 0.036523 0.657248 -0.657248 0.368851 0.000000 0.000000 255 255 255 255
0.068659 -0.068659 0.019727 0.657248 -0.657248 -0.368851 0.000000 0.000000 255 255 255 255
0.000000 0.096042 0.037500 0.000000 0.437704 0.899119 0.000000 0.000000 255 255 255 255
-0.016563 0.016564 -0.125000 -0.309503 0.309503 -0.899119 0.000000 0.000000 255 255 255 255
0.092470 0.092474 -6.144457 0.660795 0.660795 0.355948 0.116963 0.997662 255 255 255 255
0.130773 0.000002 -6.144457 0.934506 -0.000000 0.355948 0.244845 0.998908 255 255 255 255
0.135631 0.000002 -6.150668 0.951837 -0.000000 0.306605 0.244845 0.998908 255 255 255 255
0.095905 0.095909 -6.150668 0.673050 0.673050 0.306605 0.116963 0.997662 255 255 255 255
-0.092474 -0.092471 -6.144457 -0.660795 -0.660795 0.355948 0.628510 0.999657 255 255 255 255
-0.130778 0.000002 -6.144457 -0.934506 0.000000 0.355948 0.756397 0.998909 255 255 255 255
-0.135635 0.000002 -6.150668 -0.951837 -0.000000 0.306605 0.756397 0.998909 255 255 255 255
-0.095909 -0.095906 -6.150668 -0.673050 -0.673050 0.306605 0.628510 0.999657 255 255 255 255
0.092470 -0.092471 -6.144457 0.660795 -0.660795 0.355948 0.372731 0.999656 255 255 255 255
0.095905 -0.095906 -6.150668 0.673050 -0.673050 0.306605 0.372731 0.999656 255 255 255 255
-0.092474 0.092474 -6.144457 -0.660795 0.660795 0.355948 0.884279 0.997663 255 255 255 255
-0.095909 0.095909 -6.150668 -0.673050 0.673050 0.306605 0.884279 0.997663 255 255 255 255
-0.000002 -0.130774 -6.144457 -0.000000 -0.934506 0.355948 0.500621 0.999906 255 255 255 255
-0.000002 -0.135632 -6.150668 0.000000 -0.951837 0.306605 0.500621 0.999906 255 255 255 255
-0.000002 0.130777 -6.144457 -0.000000 0.934506 0.355948 1.012152 0.995919 255 255 255 255
-0.000002 0.135635 -6.150668 0.000000 0.951837 0.306605 1.012152 0.995919 255 255 255 255
-0.000002 0.130777 -6.144457 -0.000000 0.934506 0.355948 -0.010910 0.995917 255 255 255 255
-0.000002 0.135635 -6.150668 0.000000 0.951837 0.306605 -0.010910 0.995917 255 255 255 255
-0.094580 0.000000 -0.003065 -0.927981 -0.000000 0.372628 0.674619 0.992135 255 255 255 255
-0.095648 0.000000 -0.184269 -0.981398 -0.000000 0.191986 0.674619 0.992135 255 255 255 255
-0.067634 -0.067633 -0.184269 -0.693953 -0.693953 0.191985 0.674619 0.992135 255 255 255 255
-0.066878 -0.066878 -0.003065 -0.656182 -0.656182 0.372627 0.674619 0.992135 255 255 255 255
-0.000000 -0.094580 -0.003065 0.000000 -0.927981 0.372628 0.674619 0.992135 255 255 255 255
-0.000000 -0.095648 -0.184269 0.000000 -0.981398 0.191985 0.674619 0.992135 255 255 255 255
0.067633 -0.067633 -0.184269 0.693953 -0.693953 0.191985 0.674619 0.992135 255 255 255 255
0.066878 -0.066878 -0.003065 0.656182 -0.656182 0.372627 0.674619 0.992135 255 255 255 255
-0.000000 0.094580 -0.003065 0.000000 0.927981 0.372628 0.674619 0.992135 255 255 255 255
-0.000000 0.095648 -0.184269 0.000000 0.981398 0.191985 0.674619 0.992135 255 255 255 255
-0.067634 0.067634 -0.184269 -0.693953 0.693953 0.191986 0.674619 0.992135 255 255 255 255
-0.066878 0.066878 -0.003065 -0.656182 0.656181 0.372628 0.674619 0.992135 255 255 255 255
0.094580 0.000000 -0.003065 0.927981 -0.000000 0.372627 0.674619 0.992135 255 255 255 255
0.095648 0.000000 -0.184269 0.981398 -0.000000 0.191985 0.674619 0.992135 255 255 255 255
0.067633 0.067634 -0.184269 0.693953 0.693953 0.191985 0.674619 0.992135 255 255 255 255
0.066878 0.066878 -0.003065 0.656182 0.656181 0.372628 0.674619 0.992135 255 255 255 255
0.067969 0.067969 -0.264724 0.695396 0.695396 -0.181241 0.750250 0.983786 255 255 255 255
0.077970 0.077972 -2.664830 0.680453 0.680454 0.271967 0.805579 0.008525 255 255 255 255
-0.000001 0.110268 -2.664830 -0.000000 0.962307 0.271966 0.949331 0.009080 255 255 255 255
-0.000000 0.096122 -0.264724 -0.000000 0.983439 -0.181241 0.875564 0.984269 255 255 255 255
0.067969 -0.067969 -0.264724 0.695396 -0.695396 -0.181242 0.499603 0.983233 255 255 255 255
0.077970 -0.077970 -2.664830 0.680453 -0.680453 0.271968 0.518051 0.007892 255 255 255 255
0.110267 0.000001 -2.664830 0.962306 0.000000 0.271967 0.661818 0.008129 255 255 255 255
0.096122 0.000000 -0.264724 0.983439 -0.000000 -0.181242 0.624929 0.983440 255 255 255 255
-0.067969 -0.067969 -0.264724 -0.695396 -0.695396 -0.181241 0.248946 0.983233 255 255 255 255
-0.077972 -0.077970 -2.664830 -0.680454 -0.680453 0.271966 0.230511 0.007892 255 255 255 255
-0.000001 -0.110267 -2.664830 -0.000000 -0.962307 0.271967 0.374281 0.007812 255 255 255 255
-0.000000 -0.096122 -0.264724 -0.000000 -0.983439 -0.181242 0.374274 0.983164 255 255 255 255
-0.067969 0.067969 -0.264724 -0.695396 0.695396 -0.181241 -0.001702 0.983785 255 255 255 255
-0.077972 0.077972 -2.664830 -0.680454 0.680454 0.271966 -0.057017 0.008525 255 255 255 255
-0.110269 0.000001 -2.664830 -0.962307 0.000000 0.271966 0.086744 0.008129 255 255 255 255
-0.096122 0.000000 -0.264724 -0.983439 0.000000 -0.181241 0.123619 0.983440 255 255 255 255
-0.000000 0.096122 -0.264724 -0.000000 0.983439 -0.181241 -0.127015 0.984269 255 255 255 255
-0.000001 0.110268 -2.664830 -0.000000 0.962307 0.271966 -0.200769 0.009080 255 255 255 255
-0.000001 -0.122018 -2.685795 0.000000 -0.970280 0.241986 0.374281 0.007812 255 255 255 255
0.086279 -0.086280 -2.685795 0.686091 -0.686091 0.241987 0.518051 0.007892 255 255 255 255
-0.088714 0.088714 -5.242209 -0.675083 0.675083 -0.297532 0.868679 0.001768 255 255 255 255
-0.125460 0.000001 -5.242209 -0.954712 -0.000000 -0.297532 0.745998 0.002964 255 255 255 255
-0.138830 0.000001 -5.221244 -0.965591 0.000000 -0.260065 0.745998 0.002964 255 255 255 255
-0.098168 0.098167 -5.221244 -0.682776 0.682776 -0.260065 0.868679 0.001768 255 255 255 255
0.122018 0.000001 -2.685795 0.970280 -0.000000 0.241987 0.661818 0.008129 255 255 255 255
0.086279 0.086281 -2.685795 0.686092 0.686091 0.241986 0.805579 0.008525 255 255 255 255
-0.088714 -0.088711 -5.242209 -0.675083 -0.675083 -0.297532 0.623312 0.003681 255 255 255 255
-0.000002 -0.125457 -5.242209 0.000000 -0.954712 -0.297532 0.500623 0.003920 255 255 255 255
-0.000002 -0.138826 -5.221244 -0.000000 -0.965591 -0.260064 0.500623 0.003920 255 255 255 255
-0.098168 -0.098165 -5.221244 -0.682776 -0.682776 -0.260064 0.623312 0.003681 255 255 255 255
-0.086281 0.086281 -2.685795 -0.686092 0.686091 0.241985 -0.057017 0.008525 255 255 255 255
-0.122020 0.000001 -2.685795 -0.970280 -0.000000 0.241985 0.086744 0.008129 255 255 255 255
0.088710 -0.088711 -5.242209 0.675083 -0.675083 -0.297531 0.377935 0.003681 255 255 255 255
0.125456 0.000001 -5.242209 0.954712 -0.000000 -0.297531 0.255249 0.002964 255 255 255 255
0.138826 0.000001 -5.221244 0.965591 0.000000 -0.260064 0.255249 0.002964 255 255 255 255
0.098164 -0.098165 -5.221244 0.682776 -0.682776 -0.260064 0.377935 0.003681 255 255 255 255
-0.086281 -0.086280 -2.685795 -0.686091 -0.686091 0.241986 0.230511 0.007892 255 255 255 255
0.088710 0.088714 -5.242209 0.675083 0.675083 -0.297532 0.132568 0.001768 255 255 255 255
-0.000002 0.125459 -5.242209 0.000000 0.954712 -0.297532 0.009895 0.000094 255 255 255 255
-0.000002 0.138829 -5.221244 -0.000000 0.965591 -0.260064 0.009895 0.000094 255 255 255 255
0.098164 0.098167 -5.221244 0.682776 0.682776 -0.260064 0.132568 0.001768 255 255 255 255
-0.000002 0.125459 -5.242209 0.000000 0.954712 -0.297532 0.991352 0.000095 255 255 255 255
-0.000000 0.101082 -0.251315 -0.000000 0.986105 -0.166125 0.674619 0.992135 255 255 255 255
-0.000000 0.096122 -0.264724 -0.000000 0.983439 -0.181241 0.674619 0.992135 255 255 255 255
-0.067969 0.067969 -0.264724 -0.695396 0.695396 -0.181241 0.674619 0.992135 255 255 255 255
-0.071476 0.071476 -0.251315 -0.697281 0.697281 -0.166125 0.674619 0.992135 255 255 255 255
-0.101082 0.000000 -0.251315 -0.986105 0.000000 -0.166125 0.674619 0.992135 255 255 255 255
-0.096122 0.000000 -0.264724 -0.983439 0.000000 -0.181241 0.674619 0.992135 255 255 255 255
-0.067969 -0.067969 -0.264724 -0.695396 -0.695396 -0.181241 0.674619 0.992135 255 255 255 255
-0.071476 -0.071475 -0.251315 -0.697281 -0.697281 -0.166125 0.674619 0.992135 255 255 255 255
-0.000000 -0.101081 -0.251315 -0.000000 -0.986105 -0.166126 0.674619 0.992135 255 255 255 255
-0.000000 -0.096122 -0.264724 -0.000000 -0.983439 -0.181242 0.674619 0.992135 255 255 255 255
0.067969 -0.067969 -0.264724 0.695396 -0.695396 -0.181242 0.674619 0.992135 255 255 255 255
0.071475 -0.071475 -0.251315 0.697281 -0.697281 -0.166126 0.674619 0.992135 255 255 255 255
0.101081 0.000000 -0.251315 0.986105 -0.000000 -0.166126 0.674619 0.992135 255 255 255 255
0.096122 0.000000 -0.264724 0.983439 -0.000000 -0.181242 0.674619 0.992135 255 255 255 255
0.067969 0.067969 -0.264724 0.695396 0.695396 -0.181241 0.674619 0.992135 255 255 255 255
0.071475 0.071476 -0.251315 0.697281 0.697281 -0.166125 0.674619 0.992135 255 255 255 255
-0.000000 0.091245 0.000000 0.000000 0.436298 0.899802 0.674619 0.992135 255 255 255 255
-0.064520 0.064520 0.000000 -0.308510 0.308510 0.899802 0.674619 0.992135 255 255 255 255
-0.091245 0.000000 0.000000 -0.436299 -0.000000 0.899802 0.674619 0.992135 255 255 255 255
-0.000000 -0.000000 0.000000 0.000000 -0.000000 1.000000 0.674619 0.992135 255 255 255 255
0.091245 0.000000 -0.000000 0.436299 -0.000000 0.899802 0.674619 0.992135 255 255 255 255
-0.000000 -0.091245 -0.000000 0.000000 -0.436299 0.899802 0.674619 0.992135 255 255 255 255
0.064520 -0.064520 -0.000000 0.308510 -0.308510 0.899802 0.674619 0.992135 255 255 255 255
-0.064520 -0.064520 0.000000 -0.308510 -0.308510 0.899802 0.674619 0.992135 255 255 255 255
0.064520 0.064520 -0.000000 0.308510 0.308509 0.899802 0.674619 0.992135 255 255 255 255
-0.000000 0.091245 0.000000 0.000000 0.436298 0.899802 0.674619 0.992135 255 255 255 255
0.071240 0.071240 -0.197678 0.696016 0.696016 0.176420 0.674619 0.992135 255 255 255 255
-0.000000 0.100749 -0.197678 0.000000 0.984315 0.176420 0.674619 0.992135 255 255 255 255
0.071240 -0.071240 -0.197678 0.696016 -0.696016 0.176420 0.674619 0.992135 255 255 255 255
0.100749 0.000000 -0.197678 0.984315 -0.000000 0.176420 0.674619 0.992135 255 255 255 255
-0.071240 -0.071240 -0.197678 -0.696016 -0.696016 0.176420 0.674619 0.992135 255 255 255 255
-0.000000 -0.100749 -0.197678 0.000000 -0.984315 0.176420 0.674619 0.992135 255 255 255 255
-0.071240 0.071240 -0.197678 -0.696016 0.696016 0.176420 0.674619 0.992135 255 255 255 255
-0.100749 0.000000 -0.197678 -0.984315 -0.000000 0.176421 0.674619 0.992135 255 255 255 255
0.086279 0.086281 -2.685795 0.686092 0.686091 0.241986 0.674619 0.992135 255 255 255 255
0.098164 0.098167 -5.221244 0.682776 0.682776 -0.260064 0.674619 0.992135 255 255 255 255
-0.000002 0.138829 -5.221244 -0.000000 0.965591 -0.260064 0.674619 0.992135 255 255 255 255
-0.000001 0.122019 -2.685795 0.000000 0.970280 0.241986 0.674619 0.992135 255 255 255 255
0.086279 -0.086280 -2.685795 0.686091 -0.686091 0.241987 0.674619 0.992135 255 255 255 255
0.098164 -0.098165 -5.221244 0.682776 -0.682776 -0.260064 0.674619 0.992135 255 255 255 255
0.138826 0.000001 -5.221244 0.965591 0.000000 -0.260064 0.674619 0.992135 255 255 255 255
0.122018 0.000001 -2.685795 0.970280 -0.000000 0.241987 0.674619 0.992135 255 255 255 255
-0.086281 -0.086280 -2.685795 -0.686091 -0.686091 0.241986 0.674619 0.992135 255 255 255 255
-0.098168 -0.098165 -5.221244 -0.682776 -0.682776 -0.260064 0.674619 0.992135 255 255 255 255
-0.000002 -0.138826 -5.221244 -0.000000 -0.965591 -0.260064 0.674619 0.992135 255 255 255 255
-0.000001 -0.122018 -2.685795 0.000000 -0.970280 0.241986 0.674619 0.992135 255 255 255 255
-0.086281 0.086281 -2.685795 -0.686092 0.686091 0.241985 0.674619 0.992135 255 255 255 255
-0.098168 0.098167 -5.221244 -0.682776 0.682776 -0.260065 0.674619 0.992135 255 255 255 255
-0.138830 0.000001 -5.221244 -0.965591 0.000000 -0.260065 0.674619 0.992135 255 255 255 255
-0.122020 0.000001 -2.685795 -0.970280 -0.000000 0.241985 0.674619 0.992135 255 255 255 255
-0.000001 0.122019 -2.685795 0.000000 0.970280 0.241986 -0.200769 0.009080 255 255 255 255
-0.000001 0.122019 -2.685795 0.000000 0.970280 0.241986 0.949331 0.009080 255 255 255 255
-0.000002 0.138829 -5.221244 -0.000000 0.965591 -0.260064 0.991352 0.000095 255 255 255 255
-0.000002 0.135635 -6.150668 0.000000 0.951837 0.306605 0.674619 0.992135 255 255 255 255
-0.000002 0.137306 -6.417887 0.000000 0.947852 -0.318710 0.674619 0.992135 255 255 255 255
-0.097091 0.097091 -6.417887 -0.670233 0.670233 -0.318710 0.674619 0.992135 255 255 255 255
-0.095909 0.095909 -6.150668 -0.673050 0.673050 0.306605 0.674619 0.992135 255 255 255 255
-0.135635 0.000002 -6.150668 -0.951837 -0.000000 0.306605 0.674619 0.992135 255 255 255 255
-0.137307 0.000002 -6.417887 -0.947852 0.000000 -0.318710 0.674619 0.992135 255 255 255 255
-0.097091 -0.097087 -6.417887 -0.670233 -0.670233 -0.318710 0.674619 0.992135 255 255 255 255
-0.095909 -0.095906 -6.150668 -0.673050 -0.673050 0.306605 0.674619 0.992135 255 255 255 255
-0.000002 -0.135632 -6.150668 0.000000 -0.951837 0.306605 0.674619 0.992135 255 255 255 255
-0.000002 -0.137303 -6.417887 -0.000000 -0.947852 -0.318710 0.674619 0.992135 255 255 255 255
0.097087 -0.097087 -6.417887 0.670233 -0.670233 -0.318710 0.674619 0.992135 255 255 255 255
0.095905 -0.095906 -6.150668 0.673050 -0.673050 0.306605 0.674619 0.992135 255 255 255 255
0.135631 0.000002 -6.150668 0.951837 -0.000000 0.306605 0.674619 0.992135 255 255 255 255
0.137302 0.000002 -6.417887 0.947852 -0.000000 -0.318710 0.674619 0.992135 255 255 255 255
0.097087 0.097091 -6.417887 0.670233 0.670233 -0.318710 0.674619 0.992135 255 255 255 255
0.095905 0.095909 -6.150668 0.673050 0.673050 0.306605 0.674619 0.992135 255 255 255 255
-0.000002 0.109845 -6.453351 0.000000 0.982355 -0.187025 0.674619 0.992135 255 255 255 255
-0.000002 0.109845 -6.491251 -0.000000 0.926625 -0.375987 0.674619 0.992135 255 255 255 255
-0.077673 0.077673 -6.491251 -0.655223 0.655223 -0.375987 0.674619 0.992135 255 255 255 255
-0.077673 0.077673 -6.453351 -0.694630 0.694630 -0.187025 0.674619 0.992135 255 255 255 255
-0.109846 0.000002 -6.453351 -0.982355 -0.000000 -0.187025 0.674619 0.992135 255 255 255 255
-0.109846 0.000002 -6.491251 -0.926625 0.000000 -0.375987 0.674619 0.992135 255 255 255 255
-0.077673 -0.077669 -6.491251 -0.655223 -0.655223 -0.375987 0.674619 0.992135 255 255 255 255
-0.077673 -0.077669 -6.453351 -0.694630 -0.694630 -0.187025 0.674619 0.992135 255 255 255 255
-0.000002 -0.109842 -6.453351 -0.000000 -0.982355 -0.187025 0.674619 0.992135 255 255 255 255
-0.000002 -0.109842 -6.491251 -0.000000 -0.926625 -0.375987 0.674619 0.992135 255 255 255 255
0.077669 -0.077669 -6.491251 0.655223 -0.655223 -0.375987 0.674619 0.992135 255 255 255 255
0.077669 -0.077669 -6.453351 0.694630 -0.694630 -0.187025 0.674619 0.992135 255 255 255 255
0.109842 0.000002 -6.453351 0.982355 -0.000000 -0.187025 0.674619 0.992135 255 255 255 255
0.109842 0.000002 -6.491251 0.926625 -0.000000 -0.375987 0.674619 0.992135 255 255 255 255
0.077669 0.077673 -6.491251 0.655223 0.655223 -0.375987 0.674619 0.992135 255 255 255 255
0.077669 0.077673 -6.453351 0.694630 0.694630 -0.187025 0.674619 0.992135 255 255 255 255
0.079258 0.079262 -6.447374 0.600476 0.600477 -0.528068 0.674619 0.992135 255 255 255 255
-0.000002 0.112093 -6.447374 0.000000 0.849202 -0.528068 0.674619 0.992135 255 255 255 255
-0.079262 0.079262 -6.447374 -0.600477 0.600476 -0.528068 0.674619 0.992135 255 255 255 255
-0.112093 0.000002 -6.447374 -0.849202 -0.000000 -0.528068 0.674619 0.992135 255 255 255 255
-0.000002 0.000002 -6.500002 0.000000 0.000000 -1.000000 0.674619 0.992135 255 255 255 255
-0.000002 -0.100018 -6.500002 -0.000000 -0.428273 -0.903650 0.674619 0.992135 255 255 255 255
-0.070727 -0.070723 -6.500002 -0.302835 -0.302835 -0.903650 0.674619 0.992135 255 255 255 255
-0.100022 0.000002 -6.500002 -0.428273 0.000000 -0.903650 0.674619 0.992135 255 255 255 255
0.100018 0.000002 -6.500002 0.428273 -0.000000 -0.903650 0.674619 0.992135 255 255 255 255
0.070723 -0.070723 -6.500002 0.302834 -0.302835 -0.903650 0.674619 0.992135 255 255 255 255
-0.079262 -0.079258 -6.447374 -0.600477 -0.600476 -0.528068 0.674619 0.992135 255 255 255 255
-0.000002 -0.112089 -6.447374 -0.000000 -0.849202 -0.528068 0.674619 0.992135 255 255 255 255
0.079258 -0.079258 -6.447374 0.600476 -0.600477 -0.528068 0.674619 0.992135 255 255 255 255
-0.000002 0.100022 -6.500002 -0.000000 0.428273 -0.903650 0.674619 0.992135 255 255 255 255
-0.070727 0.070727 -6.500002 -0.302835 0.302835 -0.903650 0.674619 0.992135 255 255 255 255
0.112089 0.000002 -6.447374 0.849202 -0.000000 -0.528068 0.674619 0.992135 255 255 255 255
0.112089 0.000002 -6.447374 0.849202 -0.000000 -0.528068 0.674619 0.992135 255 255 255 255
0.070723 0.070727 -6.500002 0.302835 0.302835 -0.903650 0.674619 0.992135 255 255 255 255
0.047013 0.047013 3.179804 0.707084 0.707082 0.008135 0.000000 0.000000 255 255 255 255
0.000000 0.037825 6.443694 -0.000001 0.942519 0.334151 0.000000 0.000000 255 255 255 255
0.026746 0.026746 6.443694 0.656106 0.656107 0.372893 0.000000 0.000000 255 255 255 255
0.047013 -0.047013 3.179804 0.707082 -0.707084 0.008134 0.000000 0.000000 255 255 255 255
0.037825 0.000000 6.443694 0.942519 0.000001 0.334151 0.000000 0.000000 255 255 255 255
0.026746 -0.026746 6.443694 0.656107 -0.656106 0.372893 0.000000 0.000000 255 255 255 255
0.066486 0.000000 3.179804 0.999967 -0.000001 0.008134 0.000000 0.000000 255 255 255 255
0.000000 -0.066486 3.179804 -0.000000 -0.999967 0.008134 0.000000 0.000000 255 255 255 255
0.000000 -0.037825 6.443694 0.000000 -0.942520 0.334150 0.000000 0.000000 255 255 255 255
-0.026746 -0.026746 6.443694 -0.656107 -0.656106 0.372893 0.000000 0.000000 255 255 255 255
0.000000 0.000000 6.458997 -0.000000 -0.000000 1.000000 0.000000 0.000000 255 255 255 255
0.021918 0.021918 6.450002 0.389076 0.389076 0.835009 0.000000 0.000000 255 255 255 255
0.000000 0.031212 6.451575 -0.000000 0.571898 0.820325 0.000000 0.000000 255 255 255 255
0.021918 -0.021918 6.450002 0.389076 -0.389076 0.835009 0.000000 0.000000 255 255 255 255
0.031212 0.000000 6.451575 0.571898 0.000000 0.820325 0.000000 0.000000 255 255 255 255
-0.021918 -0.021918 6.450002 -0.389076 -0.389076 0.835009 0.000000 0.000000 255 255 255 255
-0.031212 0.000000 6.451575 -0.571898 -0.000000 0.820325 0.000000 0.000000 255 255 255 255
-0.037825 0.000000 6.443694 -0.942519 -0.000000 0.334152 0.000000 0.000000 255 255 255 255
-0.047013 -0.047013 3.179804 -0.707082 -0.707084 0.008135 0.000000 0.000000 255 255 255 255
-0.021918 0.021918 6.450002 -0.389076 0.389076 0.835009 0.000000 0.000000 255 255 255 255
-0.026746 0.026746 6.443694 -0.656107 0.656106 0.372893 0.000000 0.000000 255 255 255 255
0.000000 -0.031212 6.451575 -0.000000 -0.571898 0.820325 0.000000 0.000000 255 255 255 255
0.000000 0.066486 3.179804 0.000002 0.999967 0.008135 0.000000 0.000000 255 255 255 255
-0.047013 0.047013 3.179804 -0.707082 0.707084 0.008135 0.000000 0.000000 255 255 255 255
-0.000001 0.110268 -2.664830 -0.000001 0.962091 0.272728 0.000000 0.000000 255 255 255 255
-0.062492 0.062492 0.257487 -0.707087 0.707087 0.007491 0.000000 0.000000 255 255 255 255
-0.000000 0.088377 0.257487 -0.000000 0.999972 0.007491 0.000000 0.000000 255 255 255 255
0.077970 -0.077970 -2.664830 0.680301 -0.680301 0.272730 0.000000 0.000000 255 255 255 255
0.088376 0.000000 0.257487 0.999972 -0.000000 0.007491 0.000000 0.000000 255 255 255 255
0.062491 -0.062491 0.257487 0.707087 -0.707087 0.007491 0.000000 0.000000 255 255 255 255
-0.062492 -0.062491 0.257487 -0.707087 -0.707087 0.007491 0.000000 0.000000 255 255 255 255
-0.000001 -0.110267 -2.664830 -0.000000 -0.962091 0.272729 0.000000 0.000000 255 255 255 255
-0.000000 -0.088376 0.257487 0.000001 -0.999972 0.007491 0.000000 0.000000 255 255 255 255
0.110267 0.000001 -2.664830 0.962091 0.000000 0.272730 0.000000 0.000000 255 255 255 255
0.062491 0.062492 0.257487 0.707087 0.707087 0.007491 0.000000 0.000000 255 255 255 255
-0.110269 0.000001 -2.664830 -0.962091 -0.000000 0.272727 0.000000 0.000000 255 255 255 255
-0.088377 0.000000 0.257487 -0.999972 0.000000 0.007491 0.000000 0.000000 255 255 255 255
0.077970 0.077972 -2.664830 0.680301 0.680301 0.272729 0.000000 0.000000 255 255 255 255
-0.077972 0.077972 -2.664830 -0.680302 0.680301 0.272727 0.000000 0.000000 255 255 255 255
0.097087 0.097091 -6.417887 0.670658 0.670658 -0.316917 0.000000 0.000000 255 255 255 255
-0.000002 0.125459 -5.242209 0.000000 0.955328 -0.295547 0.000000 0.000000 255 255 255 255
0.088710 0.088714 -5.242209 0.675520 0.675519 -0.295547 0.000000 0.000000 255 255 255 255
-0.000001 -0.122018 -2.685795 0.000000 -0.970280 0.241986 0.000000 0.000000 255 255 255 255
0.086279 -0.086280 -2.685795 0.686091 -0.686091 0.241987 0.000000 0.000000 255 255 255 255
-0.088714 0.088714 -5.242209 -0.675519 0.675519 -0.295547 0.000000 0.000000 255 255 255 255
-0.138830 0.000001 -5.221244 -0.965591 0.000000 -0.260065 0.000000 0.000000 255 255 255 255
-0.098168 0.098168 -5.221244 -0.682776 0.682776 -0.260065 0.000000 0.000000 255 255 255 255
0.086279 0.086281 -2.685795 0.686092 0.686091 0.241986 0.000000 0.000000 255 255 255 255
-0.088714 -0.088711 -5.242209 -0.675519 -0.675519 -0.295547 0.000000 0.000000 255 255 255 255
-0.000002 -0.138826 -5.221244 -0.000000 -0.965591 -0.260064 0.000000 0.000000 255 255 255 255
-0.098168 -0.098165 -5.221244 -0.682776 -0.682776 -0.260064 0.000000 0.000000 255 255 255 255
-0.122020 0.000001 -2.685795 -0.970280 -0.000000 0.241985 0.000000 0.000000 255 255 255 255
0.088710 -0.088711 -5.242209 0.675519 -0.675519 -0.295546 0.000000 0.000000 255 255 255 255
0.138826 0.000001 -5.221244 0.965591 0.000000 -0.260064 0.000000 0.000000 255 255 255 255
0.098164 -0.098165 -5.221244 0.682776 -0.682776 -0.260064 0.000000 0.000000 255 255 255 255
-0.086281 -0.086280 -2.685795 -0.686091 -0.686092 0.241986 0.000000 0.000000 255 255 255 255
0.098164 0.098168 -5.221244 0.682776 0.682776 -0.260064 0.000000 0.000000 255 255 255 255
-0.000001 0.122019 -2.685795 0.000000 0.970280 0.241986 0.000000 0.000000 255 255 255 255
0.122018 0.000001 -2.685795 0.970280 -0.000000 0.241987 0.000000 0.000000 255 255 255 255
-0.086281 0.086281 -2.685795 -0.686091 0.686092 0.241985 0.000000 0.000000 255 255 255 255
-0.000002 0.138829 -5.221244 -0.000000 0.965591 -0.260064 0.000000 0.000000 255 255 255 255
0.125456 0.000001 -5.242209 0.955328 -0.000000 -0.295546 0.000000 0.000000 255 255 255 255
-0.077972 -0.077970 -2.664830 -0.680302 -0.680301 0.272728 0.000000 0.000000 255 255 255 255
-0.000002 -0.125457 -5.242209 0.000000 -0.955328 -0.295547 0.000000 0.000000 255 255 255 255
-0.125460 0.000001 -5.242209 -0.955328 -0.000000 -0.295547 0.000000 0.000000 255 255 255 255
-0.000002 0.137306 -6.417887 -0.000000 0.948453 -0.316917 0.000000 0.000000 255 255 255 255
-0.137307 0.000002 -6.417887 -0.948453 -0.000000 -0.316917 0.000000 0.000000 255 255 255 255
-0.000002 -0.137303 -6.417887 0.000000 -0.948453 -0.316917 0.000000 0.000000 255 255 255 255
0.137302 0.000002 -6.417887 0.948453 0.000000 -0.316917 0.000000 0.000000 255 255 255 255
-0.097091 0.097091 -6.417887 -0.670658 0.670658 -0.316917 0.000000 0.000000 255 255 255 255
-0.097091 -0.097087 -6.417887 -0.670658 -0.670658 -0.316917 0.000000 0.000000 255 255 255 255
0.097087 -0.097087 -6.417887 0.670658 -0.670658 -0.316918 0.000000 0.000000 255 255 255 255
-0.112093 0.000002 -6.447374 -0.918169 -0.000000 -0.396189 0.000000 0.000000 255 255 255 255
-0.077673 0.077673 -6.501251 -0.537788 0.537787 -0.649284 0.000000 0.000000 255 255 255 255
-0.109846 0.000002 -6.501251 -0.760546 0.000000 -0.649284 0.000000 0.000000 255 255 255 255
-0.079262 -0.079258 -6.447374 -0.649243 -0.649243 -0.396189 0.000000 0.000000 255 255 255 255
-0.000002 -0.109842 -6.501251 -0.000000 -0.760546 -0.649284 0.000000 0.000000 255 255 255 255
-0.000002 -0.112089 -6.447374 0.000000 -0.918169 -0.396189 0.000000 0.000000 255 255 255 255
0.079258 -0.079258 -6.447374 0.649243 -0.649243 -0.396190 0.000000 0.000000 255 255 255 255
0.109842 0.000002 -6.501251 0.760546 -0.000000 -0.649284 0.000000 0.000000 255 255 255 255
0.112089 0.000002 -6.447374 0.918169 -0.000000 -0.396190 0.000000 0.000000 255 255 255 255
0.077669 -0.077669 -6.501251 0.537787 -0.537787 -0.649284 0.000000 0.000000 255 255 255 255
-0.079262 0.079262 -6.447374 -0.649244 0.649243 -0.396189 0.000000 0.000000 255 255 255 255
-0.000002 0.109845 -6.501251 0.000000 0.760546 -0.649284 0.000000 0.000000 255 255 255 255
-0.077673 -0.077669 -6.501251 -0.537788 -0.537787 -0.649284 0.000000 0.000000 255 255 255 255
0.079258 0.079262 -6.447374 0.649243 0.649243 -0.396189 0.000000 0.000000 255 255 255 255
-0.000002 0.000002 -6.500002 0.000000 -0.000000 -1.000000 0.000000 0.000000 255 255 255 255
-0.000002 0.112093 -6.447374 0.000000 0.918169 -0.396189 0.000000 0.000000 255 255 255 255
0.077669 0.077673 -6.501251 0.537787 0.537787 -0.649284 0.000000 0.000000 255 255 255 255
-0.066486 0.000000 3.179804 -0.999967 -0.000000 0.008135 0.000000 0.000000 255 255 255 255
4 0 1 2 3
4 4 5 6 7
4 1 8 9 2
4 10 11 12 13
4 5 0 3 6
4 14 4 7 15
4 16 17 18 19
4 20 21 22 23
4 24 25 26 27
4 28 14 15 29
4 11 16 19 12
4 17 20 23 18
4 21 30 31 22
4 32 33 34 35
4 36 37 38 39
4 40 41 42 43
4 44 45 46 47
4 33 44 47 34
4 41 48 49 42
4 50 51 48 41
4 37 32 35 38
4 52 36 39 53
4 54 52 53 55
4 56 28 29 57
4 58 40 9 57
4 50 58 57 29
4 51 50 29 15
4 48 51 15 7
4 49 48 7 6
4 42 49 6 3
4 43 42 3 2
4 40 43 2 9
4 58 50 41 40
4 59 60 61 62
4 63 64 65 66
4 67 68 69 70
4 71 72 73 74
4 68 59 62 69
4 60 63 66 61
4 64 71 74 65
4 75 76 77 78
4 79 80 81 82
4 83 84 85 86
4 87 75 78 88
4 76 79 82 77
4 80 83 86 81
4 84 89 90 85
4 89 87 88 90
4 91 92 93 94
4 74 73 95 96
4 69 62 97 98
4 94 93 99 100
4 101 94 100 102
4 62 61 103 97
4 66 65 104 105
4 61 66 105 103
4 65 74 96 104
4 70 69 98 106
4 73 70 106 95
4 107 108 109 110
4 111 112 25 24
4 113 114 115 116
4 110 109 117 118
4 30 119 120 31
4 27 26 108 107
4 116 115 112 111
4 118 117 114 113
4 121 122 123 124
4 31 120 125 126
4 127 128 129 130
4 12 19 131 132
4 18 23 133 134
4 122 127 130 123
4 23 22 135 133
4 80 79 136 137
4 54 45 26 25
4 52 54 25 112
4 36 52 112 115
4 37 36 115 114
4 32 37 114 117
4 33 32 117 109
4 44 33 109 108
4 45 44 108 26
4 8 56 57 9
4 85 90 67 72
4 86 85 72 71
4 81 86 71 64
4 82 81 64 63
4 77 82 63 60
4 78 77 60 59
4 88 78 59 68
4 90 88 68 67
4 72 67 70 73
4 56 8 46 55
4 28 56 55 53
4 14 28 53 39
4 4 14 39 38
4 5 4 38 35
4 0 5 35 34
4 1 0 34 47
4 8 1 47 46
4 45 54 55 46
4 24 27 10 119
4 111 24 119 30
4 116 111 30 21
4 113 116 21 20
4 118 113 20 17
4 110 118 17 16
4 107 110 16 11
4 27 107 11 10
4 119 10 13 120
4 75 87 138 139
4 89 84 140 141
4 83 80 137 142
4 79 76 143 136
4 87 89 141 138
4 144 121 124 145
4 146 147 148 149
4 128 150 151 129
4 147 144 145 148
4 19 18 134 131
4 13 12 132 152
4 150 146 149 151
4 120 13 152 125
4 22 31 126 135
4 84 83 142 140
4 128 127 132 131
4 121 144 126 125
4 147 146 133 135
4 150 128 131 134
4 127 122 152 132
4 122 121 125 152
4 144 147 135 126
4 146 150 134 133
4 139 138 130 129
4 140 142 145 124
4 137 136 149 148
4 143 139 129 151
4 138 141 123 130
4 141 140 124 123
4 142 137 148 145
4 136 143 151 149
4 76 75 139 143
4 95 106 91 153
4 96 95 153 101
4 104 96 101 102
4 105 104 102 100
4 103 105 100 99
4 97 103 99 93
4 98 97 93 92
4 106 98 92 91
4 153 91 94 101
4 154 155 156 157
4 158 159 160 161
4 155 162 163 156
4 159 164 165 160
4 162 166 167 163
4 164 168 169 165
4 170 154 157 171
4 166 158 161 167
4 172 173 174 175
4 176 177 178 179
4 180 181 182 183
4 184 185 186 187
4 188 189 190 191
4 192 193 194 195
4 196 197 198 199
4 200 201 202 203
4 195 194 189 188
4 199 198 193 192
4 203 202 197 196
4 204 205 201 200
4 193 198 206 207
4 208 209 210 211
4 189 194 212 213
4 214 215 216 217
4 202 201 218 219
4 220 221 222 223
4 198 197 224 206
4 225 226 227 228
4 225 154 170 226
4 220 162 155 221
4 214 158 166 215
4 208 164 159 209
4 221 155 154 225
4 215 166 162 220
4 209 159 158 214
4 229 168 164 208
4 230 231 232 233
4 234 235 236 237
4 238 239 240 241
4 242 243 244 245
4 233 232 235 234
4 237 236 239 238
4 241 240 243 242
4 245 244 231 230
4 246 247 248 249
4 250 249 251 252
4 249 248 253 251
4 179 178 185 184
4 175 174 177 176
4 183 182 173 172
4 254 255 249 250
4 186 256 257 181
4 258 241 242 259
4 178 258 259 185
4 260 237 238 261
4 174 260 261 177
4 262 233 234 263
4 182 262 263 173
4 242 245 256 259
4 185 259 256 186
4 238 241 258 261
4 177 261 258 178
4 234 237 260 263
4 173 263 260 174
4 230 233 262 257
4 181 257 262 182
4 256 245 230 257
4 264 265 266 267
4 268 269 270 271
4 272 273 274 275
4 276 277 278 279
4 271 270 265 264
4 275 274 269 268
4 279 278 273 272
4 267 266 277 276
4 221 225 228 222
4 197 202 219 224
4 215 220 223 216
4 201 205 280 218
4 209 214 217 210
4 190 189 213 281
4 229 208 211 282
4 194 193 207 212
4 283 284 285 286
4 287 288 289 290
4 291 292 293 294
4 295 296 297 298
4 286 285 288 287
4 290 289 292 291
4 294 293 296 295
4 298 297 284 283
4 299 300 301 302
4 303 304 305 306
4 307 308 309 310
4 311 312 313 314
4 310 309 312 311
4 302 301 304 303
4 306 305 308 307
4 297 315 316 284
4 285 317 318 288
4 319 320 321 322
4 323 324 320 319
4 288 318 325 289
4 292 326 327 293
4 328 319 322 329
4 289 325 326 292
4 293 327 330 296
4 296 331 315 297
4 284 316 317 285
4 332 328 300 313
4 323 332 313 312
4 324 323 312 309
4 320 324 309 308
4 321 320 308 305
4 322 321 305 304
4 329 322 304 301
4 328 329 301 300
4 332 323 319 328
4 187 180 255 254
4 184 187 254 250
4 179 184 250 252
4 176 179 252 251
4 175 176 251 253
4 172 175 253 248
4 183 172 248 247
4 180 183 247 246
4 187 186 181 180
4 314 299 316 315
4 311 314 315 331
4 310 311 330 327
4 307 310 327 326
4 306 307 326 325
4 303 306 325 318
4 302 303 318 317
4 299 302 317 316
4 314 313 300 299
3 333 334 335
3 336 337 338
3 339 335 337
3 340 338 341
3 342 340 341
3 343 344 345
3 343 346 347
3 348 343 349
3 350 351 342
3 352 334 353
3 352 350 349
3 348 350 342
3 348 341 354
3 346 341 338
3 346 337 347
3 344 337 335
3 344 334 345
3 352 343 345
3 353 355 356
3 356 350 353
3 357 358 359
3 360 361 362
3 363 364 365
3 366 367 361
3 364 362 365
3 368 363 369
3 370 359 367
3 371 369 358
3 372 373 374
3 360 375 376
3 377 378 379
3 366 380 370
3 381 382 383
3 371 384 368
3 385 386 387
3 364 388 375
3 373 389 374
3 389 390 380
3 387 391 376
3 383 375 388
3 379 384 392
3 386 380 391
3 382 376 375
3 378 388 384
3 393 392 390
3 374 386 394
3 395 384 388
3 396 387 382
3 357 392 371
3 397 383 378
3 370 390 357
3 377 393 373
3 360 391 366
3 398 377 373
3 399 381 397
3 400 385 396
3 401 374 394
3 402 397 377
3 403 396 381
3 404 394 385
3 405 406 407
3 408 409 410
3 411 412 413
3 410 414 411
3 415 416 406
3 405 417 408
3 418 398 372
3 402 405 399
3 417 419 409
3 414 419 412
3 399 408 403
3 400 411 404
3 406 419 407
3 403 410 400
3 411 401 404
3 413 372 401
3 420 402 398
3 419 421 412
3 418 412 421
3 421 420 418
3 358 422 356
3 367 355 333
3 422 363 351
3 365 336 340
3 339 367 333
3 363 340 351
3 362 339 336
3 359 356 355
3 333 355 334
3 336 339 337
3 339 333 335
3 340 336 338
3 342 351 340
3 343 347 344
3 343 354 346
3 348 354 343
3 350 422 351
3 352 345 334
3 352 353 350
3 348 349 350
3 348 342 341
3 346 354 341
3 346 338 337
3 344 347 337
3 344 335 334
3 352 349 343
3 353 334 355
3 356 422 350
3 357 371 358
3 360 366 361
3 363 395 364
3 366 370 367
3 364 360 362
3 368 395 363
3 370 357 359
3 371 368 369
3 372 398 373
3 360 364 375
3 377 397 378
3 366 391 380
3 381 396 382
3 371 392 384
3 385 394 386
3 364 395 388
3 373 393 389
3 389 393 390
3 387 386 391
3 383 382 375
3 379 378 384
3 386 389 380
3 382 387 376
3 378 383 388
3 393 379 392
3 374 389 386
3 395 368 384
3 396 385 387
3 357 390 392
3 397 381 383
3 370 380 390
3 377 379 393
3 360 376 391
3 398 402 377
3 399 403 381
3 400 404 385
3 401 372 374
3 402 399 397
3 403 400 396
3 404 401 394
3 405 415 406
3 408 417 409
3 411 414 412
3 410 409 414
3 415 420 416
3 405 407 417
3 418 420 398
3 402 415 405
3 417 407 419
3 414 409 419
3 399 405 408
3 400 410 411
3 406 416 419
3 403 408 410
3 411 413 401
3 413 418 372
3 420 415 402
3 419 416 421
3 418 413 412
3 421 416 420
3 358 369 422
3 367 359 355
3 422 369 363
3 365 362 336
3 339 361 367
3 363 365 340
3 362 361 339
3 359 358 356
